<svg width="22" height="16" viewBox="0 0 22 16" fill="none" xmlns="http://www.w3.org/2000/svg">
<path d="M9.73017 1.07319C10.1448 1.02485 10.5684 1 10.9999 1C15.6639 1 19.3998 3.90264 20.9999 8C20.6053 9.01041 20.0809 9.94816 19.4446 10.7877M5.51956 2.51944C3.47949 3.76406 1.90105 5.69259 0.999939 8C2.60008 12.0974 6.33597 15 10.9999 15C13.0375 15 14.8979 14.446 16.4805 13.4804M8.87871 5.87859C8.33576 6.42149 7.99994 7.17153 7.99994 8C7.99994 9.65685 9.34308 11 10.9999 11C11.8284 11 12.5785 10.6642 13.1214 10.1212" stroke="#808185" stroke-width="1.5" stroke-linecap="round" stroke-linejoin="round"/>
</svg>
